# xmcd
# 
# Track frame offsets:
#	150
#	10295
#	24610
#	45335
#	63755
#	82240
#	97702
#	112345
#	125672
#	139850
#	149752
#	162652
#	175987
#
# Disc length: 2520 seconds
#
# Revision: 1
# Processed by: cddbd v1.4PL0 Copyright (c) Steve Scherf et al.
# Submitted via: Audio-CD-Archiv 2.10.438
#
DISCID=bb09d60d
DTITLE=John Marshall Band - Just for Fun
DYEAR=1900
DGENRE=blues
TTITLE0=Just for Fun
TTITLE1=Gimme some Lovin
TTITLE2=Hey Joe
TTITLE3=Old Antone´s
TTITLE4=Shakey Ground
TTITLE5=Town of Plenty
TTITLE6=Shake Rattle and Roll
TTITLE7=Memphis
TTITLE8=Freedom Blues
TTITLE9=Lover Please
TTITLE10=Peace of my Heart
TTITLE11=Further Up on the Road
TTITLE12=Thats my Live
EXTD=
EXTT0=
EXTT1=
EXTT2=
EXTT3=
EXTT4=
EXTT5=
EXTT6=
EXTT7=
EXTT8=
EXTT9=
EXTT10=
EXTT11=
EXTT12=
PLAYORDER=
